<svg class="thumb" width="1000" height="1000" viewBox="0,0,600,600" xmlns="http://www.w3.org/2000/svg" xmlns:inkscape="http://www.inkscape.org/namespaces/inkscape" xmlns:sodipodi="http://sodipodi.sourceforge.net/DTD/sodipodi-0.dtd" xmlns:xlink="http://www.w3.org/1999/xlink" xmlns:ns1="http://www.inkscape.org/namespaces/inkscape" xmlns:sketch="http://www.bohemiancoding.com/sketch/ns">
  <defs></defs>
  <g transform="matrix(1.8319,0,0,1.8319,-105.9837,28.0469)">
    <g transform="matrix(-1.2856,0.0224,-0.0224,-1.2856,283.59,159.2043)">
      <svg width="77.00400000000002" height="53.7" viewBox="11.428999999999988,23.959999999999997,77.00400000000002,53.7">
        <defs>
          <linearGradient x1="0" y1="0.5" x2="1" y2="0.5" id="linearGradientSkhxnvlue4">
            <stop offset="0%" stop-color="#74d14c" stop-opacity="0.54"></stop>
            <stop offset="100%" stop-color="#74d14c" stop-opacity="0.54"></stop>
          </linearGradient>
        </defs>
        <g></g>
        <g></g>
        <g>
          <path fill-rule="evenodd" clip-rule="evenodd" d="M73.232,28.96c-5.631,0-10.194,4.567-10.194,10.197   c0,8.74-4.368,13.108-13.11,13.108c-8.737,0-13.111-4.369-13.111-13.108c0-5.63-4.563-10.197-10.194-10.197   s-10.194,4.567-10.194,10.197c0,5.631,4.563,10.198,10.194,10.198c8.742,0,13.111,4.369,13.111,13.111   c0,5.631,4.563,10.194,10.195,10.194c5.63,0,10.2-4.563,10.2-10.194c0-8.742,4.368-13.111,13.104-13.111   c5.637,0,10.2-4.567,10.2-10.198C83.433,33.527,78.869,28.96,73.232,28.96z" fill="url('#linearGradientSkhxnvlue4')" stroke="none" style=""></path>
        </g>
      </svg>
    </g>
    <g transform="matrix(1.2858,0,0,1.2858,183.9971,60.9266)">
      <svg width="77.00400000000002" height="53.7" viewBox="11.428999999999988,23.959999999999997,77.00400000000002,53.7">
        <defs>
          <linearGradient x1="0" y1="0.5" x2="1" y2="0.5" id="linearGradientSkhxnvluea">
            <stop offset="0%" stop-color="#61c78c" stop-opacity="0.54"></stop>
            <stop offset="100%" stop-color="#61c78c" stop-opacity="0.54"></stop>
          </linearGradient>
        </defs>
        <g></g>
        <g></g>
        <g>
          <path fill-rule="evenodd" clip-rule="evenodd" d="M73.232,28.96c-5.631,0-10.194,4.567-10.194,10.197   c0,8.74-4.368,13.108-13.11,13.108c-8.737,0-13.111-4.369-13.111-13.108c0-5.63-4.563-10.197-10.194-10.197   s-10.194,4.567-10.194,10.197c0,5.631,4.563,10.198,10.194,10.198c8.742,0,13.111,4.369,13.111,13.111   c0,5.631,4.563,10.194,10.195,10.194c5.63,0,10.2-4.563,10.2-10.194c0-8.742,4.368-13.111,13.104-13.111   c5.637,0,10.2-4.567,10.2-10.198C83.433,33.527,78.869,28.96,73.232,28.96z" fill="url('#linearGradientSkhxnvluea')" stroke="none" style=""></path>
        </g>
      </svg>
    </g>
    <g transform="matrix(0.0449,1.285,-1.285,0.0449,218.8251,0.3381)">
      <svg width="77.00400000000002" height="53.7" viewBox="11.428999999999988,23.959999999999997,77.00400000000002,53.7">
        <defs>
          <linearGradient x1="0" y1="0.5" x2="1" y2="0.5" id="linearGradientSkhxnvlueg">
            <stop offset="0%" stop-color="#33b5cc" stop-opacity="0.53"></stop>
            <stop offset="100%" stop-color="#33b5cc" stop-opacity="0.53"></stop>
          </linearGradient>
        </defs>
        <g></g>
        <g></g>
        <g>
          <path fill-rule="evenodd" clip-rule="evenodd" d="M73.232,28.96c-5.631,0-10.194,4.567-10.194,10.197   c0,8.74-4.368,13.108-13.11,13.108c-8.737,0-13.111-4.369-13.111-13.108c0-5.63-4.563-10.197-10.194-10.197   s-10.194,4.567-10.194,10.197c0,5.631,4.563,10.198,10.194,10.198c8.742,0,13.111,4.369,13.111,13.111   c0,5.631,4.563,10.194,10.195,10.194c5.63,0,10.2-4.563,10.2-10.194c0-8.742,4.368-13.111,13.104-13.111   c5.637,0,10.2-4.567,10.2-10.198C83.433,33.527,78.869,28.96,73.232,28.96z" fill="url('#linearGradientSkhxnvlueg')" stroke="none" style=""></path>
        </g>
      </svg>
    </g>
    <g transform="matrix(0,1.2858,-1.2858,0,222.5734,60.4971)">
      <svg width="77.00400000000002" height="53.7" viewBox="11.428999999999988,23.959999999999997,77.00400000000002,53.7">
        <defs>
          <linearGradient x1="0" y1="0.5" x2="1" y2="0.5" id="linearGradientSkhxnvluem">
            <stop offset="0%" stop-color="#5accc2" stop-opacity="0.53"></stop>
            <stop offset="100%" stop-color="#5accc2" stop-opacity="0.53"></stop>
          </linearGradient>
        </defs>
        <g></g>
        <g></g>
        <g>
          <path fill-rule="evenodd" clip-rule="evenodd" d="M73.232,28.96c-5.631,0-10.194,4.567-10.194,10.197   c0,8.74-4.368,13.108-13.11,13.108c-8.737,0-13.111-4.369-13.111-13.108c0-5.63-4.563-10.197-10.194-10.197   s-10.194,4.567-10.194,10.197c0,5.631,4.563,10.198,10.194,10.198c8.742,0,13.111,4.369,13.111,13.111   c0,5.631,4.563,10.194,10.195,10.194c5.63,0,10.2-4.563,10.2-10.194c0-8.742,4.368-13.111,13.104-13.111   c5.637,0,10.2-4.567,10.2-10.198C83.433,33.527,78.869,28.96,73.232,28.96z" fill="url('#linearGradientSkhxnvluem')" stroke="none" style=""></path>
        </g>
      </svg>
    </g>
    <g transform="matrix(0.8167,0,0,0.8167,85.7038,138.1165)">
      <svg width="319.091796875" height="196" style="overflow: visible;">
        <defs>
          <linearGradient x1="0" y1="0.5" x2="1" y2="0.5" id="linearGradientSkhxnvluey">
            <stop offset="0%" stop-color="#3a3a3a"></stop>
            <stop offset="100%" stop-color="#3a3a3a"></stop>
          </linearGradient>
        </defs>
        <g transform="matrix(1,0,0,1,0,102)">
          <path d="M 55.42-35.79L 55.42-35.79Q 55.42-18.07  48.78-8.54Q 42.14 0.98  29.79 0.98L 29.79 0.98Q 17.38 0.98  10.74-8.52Q 4.1-18.02  4.1-35.89L 4.1-35.89Q 4.1-53.61  10.74-63.06Q 17.38-72.51  29.88-72.51L 29.88-72.51Q 42.24-72.51  48.83-63.01Q 55.42-53.52  55.42-35.79ZM 17.68-35.79L 17.68-35.79Q 17.68-23.58  20.75-17.19Q 23.83-10.79  29.79-10.79L 29.79-10.79Q 41.8-10.79  41.8-35.79L 41.8-35.79Q 41.8-60.79  29.88-60.79L 29.88-60.79Q 23.83-60.79  20.75-54.42Q 17.68-48.05  17.68-35.79ZM 79.34148437500002 0.98L 79.34148437500002 0.98Q 71.82148437500001 0.98  67.48148437500001-6.45Q 63.131484375000014-13.87  63.131484375000014-27.1L 63.131484375000014-27.1Q 63.131484375000014-40.38  67.38148437500001-47.9Q 71.63148437500001-55.42  79.10148437500001-55.42L 79.10148437500001-55.42Q 82.81148437500002-55.42  85.52148437500001-53.59Q 88.23148437500001-51.76  90.53148437500002-47.41L 90.53148437500002-47.41L 91.31148437500002-47.41Q 90.72148437500002-54.83  90.72148437500002-57.81L 90.72148437500002-57.81L 90.72148437500002-75.98L 103.71148437500001-75.98L 103.71148437500001 0L 94.04148437500001 0L 91.84148437500002-7.08L 91.40148437500001-7.08Q 87.25148437500002 0.98  79.34148437500002 0.98ZM 83.54148437500001-10.01L 83.54148437500001-10.01Q 87.16148437500001-10.01  88.82148437500001-13.31Q 90.48148437500001-16.6  90.62148437500002-25.29L 90.62148437500002-25.29L 90.62148437500002-27Q 90.62148437500002-36.47  88.94148437500002-40.33Q 87.25148437500002-44.19  83.40148437500001-44.19L 83.40148437500001-44.19Q 79.78148437500002-44.19  78.15148437500001-39.77Q 76.51148437500001-35.35  76.51148437500001-26.9L 76.51148437500001-26.9Q 76.51148437500001-18.46  78.171484375-14.23Q 79.83148437500002-10.01  83.54148437500001-10.01ZM 125.240859375 0.88L 109.130859375-54.39L 122.610859375-54.39L 130.130859375-23.68Q 131.250859375-19.58  131.930859375-12.21L 131.930859375-12.21L 132.230859375-12.21Q 132.270859375-13.38  132.670859375-16.38Q 133.060859375-19.38  133.30085937500002-21.09Q 133.540859375-22.8  140.040859375-54.39L 140.040859375-54.39L 153.71085937499998-54.39L 138.130859375 3.91Q 135.30085937500002 14.65  130.610859375 19.34Q 125.930859375 24.02  118.110859375 24.02L 118.110859375 24.02Q 114.260859375 24.02  111.230859375 23.19L 111.230859375 23.19L 111.230859375 12.3Q 113.230859375 12.89  115.720859375 12.89L 115.720859375 12.89Q 122.260859375 12.89  124.320859375 4.3L 124.320859375 4.3L 125.240859375 0.88ZM 188.4309375-15.92L 188.4309375-15.92Q 188.4309375-7.96  183.7609375-3.49Q 179.1009375 0.98  170.0209375 0.98L 170.0209375 0.98Q 161.9609375 0.98  156.6909375-2.2L 156.6909375-2.2L 156.6909375-13.48Q 159.3709375-11.62  162.9609375-10.4Q 166.5509375-9.18  169.2909375-9.18L 169.2909375-9.18Q 172.3109375-9.18  173.9009375-10.67Q 175.4909375-12.16  175.4909375-14.6L 175.4909375-14.6Q 175.4909375-17.09  173.8309375-18.95Q 172.1709375-20.8  167.7209375-23.49L 167.7209375-23.49Q 161.8209375-27  159.2509375-30.98Q 156.6909375-34.96  156.6909375-40.38L 156.6909375-40.38Q 156.6909375-47.31  161.4509375-51.37Q 166.2109375-55.42  174.5109375-55.42L 174.5109375-55.42Q 181.7409375-55.42  188.13093750000002-51.61L 188.13093750000002-51.61L 183.8909375-42.29Q 178.6609375-45.12  174.7109375-45.12L 174.7109375-45.12Q 172.2209375-45.12  170.9709375-43.8Q 169.7309375-42.48  169.7309375-40.58L 169.7309375-40.58Q 169.7309375-38.38  171.2609375-36.67Q 172.8009375-34.96  177.0009375-32.42L 177.0009375-32.42Q 182.0809375-29.35  184.13093750000002-27.2Q 186.1809375-25.05  187.3009375-22.31Q 188.4309375-19.58  188.4309375-15.92ZM 225.83328125-15.92L 225.83328125-15.92Q 225.83328125-7.96  221.16328125-3.49Q 216.50328125 0.98  207.42328125 0.98L 207.42328125 0.98Q 199.36328125 0.98  194.09328125-2.2L 194.09328125-2.2L 194.09328125-13.48Q 196.77328125-11.62  200.36328125-10.4Q 203.95328125-9.18  206.69328125-9.18L 206.69328125-9.18Q 209.71328125-9.18  211.30328125-10.67Q 212.89328125-12.16  212.89328125-14.6L 212.89328125-14.6Q 212.89328125-17.09  211.23328125-18.95Q 209.57328125-20.8  205.12328125-23.49L 205.12328125-23.49Q 199.22328125-27  196.65328125-30.98Q 194.09328125-34.96  194.09328125-40.38L 194.09328125-40.38Q 194.09328125-47.31  198.85328125-51.37Q 203.61328125-55.42  211.91328125-55.42L 211.91328125-55.42Q 219.14328125-55.42  225.53328125000002-51.61L 225.53328125000002-51.61L 221.29328125-42.29Q 216.06328125-45.12  212.11328125-45.12L 212.11328125-45.12Q 209.62328125-45.12  208.37328125-43.8Q 207.13328125-42.48  207.13328125-40.58L 207.13328125-40.58Q 207.13328125-38.38  208.66328125-36.67Q 210.20328125-34.96  214.40328125-32.42L 214.40328125-32.42Q 219.48328125-29.35  221.53328125000002-27.2Q 223.58328125-25.05  224.70328125-22.31Q 225.83328125-19.58  225.83328125-15.92ZM 254.10562500000003 0.98L 254.10562500000003 0.98Q 243.89562500000002 0.98  238.01562500000003-6.27Q 232.12562500000004-13.53  232.12562500000004-26.81L 232.12562500000004-26.81Q 232.12562500000004-40.28  237.45562500000003-47.85Q 242.77562500000002-55.42  252.29562500000003-55.42L 252.29562500000003-55.42Q 261.185625-55.42  266.305625-48.95Q 271.435625-42.48  271.435625-30.81L 271.435625-30.81L 271.435625-23.88L 245.31562500000004-23.88Q 245.45562500000003-16.6  248.29562500000003-13.06Q 251.125625-9.52  256.10562500000003-9.52L 256.10562500000003-9.52Q 262.45562500000005-9.52  269.09562500000004-13.48L 269.09562500000004-13.48L 269.09562500000004-2.78Q 262.84562500000004 0.98  254.10562500000003 0.98ZM 252.19562500000004-45.41L 252.19562500000004-45.41Q 249.41562500000003-45.41  247.60562500000003-42.46Q 245.80562500000002-39.5  245.50562500000004-33.3L 245.50562500000004-33.3L 258.695625-33.3Q 258.59562500000004-39.26  256.885625-42.33Q 255.17562500000003-45.41  252.19562500000004-45.41ZM 290.62171875 0.88L 274.51171875-54.39L 287.99171875-54.39L 295.51171875-23.68Q 296.63171875-19.58  297.31171875-12.21L 297.31171875-12.21L 297.61171875-12.21Q 297.65171875-13.38  298.05171875-16.38Q 298.44171875-19.38  298.68171875-21.09Q 298.92171875-22.8  305.42171875-54.39L 305.42171875-54.39L 319.09171875-54.39L 303.51171875 3.91Q 300.68171875 14.65  295.99171875 19.34Q 291.31171875 24.02  283.49171875 24.02L 283.49171875 24.02Q 279.64171875 24.02  276.61171875 23.19L 276.61171875 23.19L 276.61171875 12.3Q 278.61171875 12.89  281.10171875 12.89L 281.10171875 12.89Q 287.64171875 12.89  289.70171875 4.3L 289.70171875 4.3L 290.62171875 0.88Z" data-textpath="Odyssey" data-text-anchor="middle" data-font-size="100" data-letterspacing="0" data-side="left" data-offset="0.5" data-dx="0" data-dy="0" data-xmlspace="preserve" data-href="" data-font="Open Sans Condensed" data-font-src="/Content/clientfonts/opensanscondensed-bold.woff" data-font-scale="contain" transform="translate(0,0)" data-x="0" data-y="0" fill="url('#linearGradientSkhxnvluey')"></path>
        </g>
      </svg>
    </g>
    <g transform="matrix(0.5085,0,0,0.5085,133.2184,225.8453)">
      <svg width="350.390625" height="196" style="overflow: visible;">
        <defs>
          <linearGradient x1="0" y1="0.5" x2="1" y2="0.5" id="linearGradientSkhxnvlue11">
            <stop offset="0%" stop-color="#3a3a3a"></stop>
            <stop offset="100%" stop-color="#3a3a3a"></stop>
          </linearGradient>
        </defs>
        <g transform="matrix(1,0,0,1,0,102)">
          <path d="M-62.579999999999984 0L-75.90999999999998 0L-80.00999999999999-18.02L-98.61999999999999-18.02L-102.71999999999998 0L-115.99999999999999 0L-98.32-71.68L-80.30999999999999-71.68L-62.579999999999984 0ZM-95.97999999999999-29.79L-82.49999999999999-29.79L-86.30999999999999-46.39Q-86.64999999999998-47.9 -87.85-53.98Q-89.04999999999998-60.06 -89.28999999999999-62.11L-89.28999999999999-62.11Q-89.92999999999998-57.91 -90.89999999999998-52.86Q-91.87999999999998-47.8 -95.97999999999999-29.79L-95.97999999999999-29.79ZM 12.117968750000003 0L-0.9620312500000026 0L-0.9620312500000026-32.42Q-0.9620312500000026-38.33 -2.3820312500000007-41.36Q-3.792031250000001-44.38 -6.972031250000001-44.38L-6.972031250000001-44.38Q-11.17203125-44.38 -13.12203125-40.21Q-15.072031249999998-36.04 -15.072031249999998-26.12L-15.072031249999998-26.12L-15.072031249999998 0L-28.06203125 0L-28.06203125-54.39L-17.76203125-54.39L-16.20203125-47.41L-15.37203125-47.41Q-13.612031250000001-51.17 -10.342031250000002-53.3Q-7.072031249999998-55.42 -2.67203125-55.42L-2.67203125-55.42Q 4.747968749999998-55.42  8.437968750000003-50.34Q 12.117968750000003-45.26  12.117968750000003-35.5L 12.117968750000003-35.5L 12.117968750000003 0ZM 87.80156249999997 0L 78.28156249999998 0L 75.69156249999997-7.42L 75.40156249999997-7.42Q 72.52156249999997-2.64  69.44156249999997-0.83Q 66.36156249999998 0.98  61.68156249999997 0.98L 61.68156249999997 0.98Q 55.67156249999997 0.98  52.231562499999974-3.52Q 48.79156249999997-8.01  48.79156249999997-16.02L 48.79156249999997-16.02Q 48.79156249999997-24.61  53.50156249999997-28.78Q 58.21156249999997-32.96  67.58156249999998-33.4L 67.58156249999998-33.4L 74.81156249999998-33.69L 74.81156249999998-37.6Q 74.81156249999998-45.21  68.22156249999998-45.21L 68.22156249999998-45.21Q 63.34156249999997-45.21  56.99156249999997-41.41L 56.99156249999997-41.41L 52.50156249999997-50.39Q 60.60156249999997-55.52  70.12156249999997-55.52L 70.12156249999997-55.52Q 78.77156249999997-55.52  83.28156249999998-50.56Q 87.80156249999997-45.61  87.80156249999997-36.52L 87.80156249999997-36.52L 87.80156249999997 0ZM 67.00156249999998-9.18L 67.00156249999998-9.18Q 70.56156249999998-9.18  72.69156249999997-12.38Q 74.81156249999998-15.58  74.81156249999998-20.9L 74.81156249999998-20.9L 74.81156249999998-25.49L 70.81156249999998-25.29Q 66.36156249999998-25.05  64.29156249999997-22.75Q 62.21156249999997-20.46  62.21156249999997-15.92L 62.21156249999997-15.92Q 62.21156249999997-9.18  67.00156249999998-9.18ZM 140.29125-75.98L 140.29125 0L 127.30125 0L 127.30125-75.98L 140.29125-75.98ZM 190.768203125 0.88L 174.658203125-54.39L 188.138203125-54.39L 195.658203125-23.68Q 196.778203125-19.58  197.458203125-12.21L 197.458203125-12.21L 197.758203125-12.21Q 197.798203125-13.38  198.198203125-16.38Q 198.588203125-19.38  198.82820312500002-21.09Q 199.068203125-22.8  205.568203125-54.39L 205.568203125-54.39L 219.23820312499998-54.39L 203.658203125 3.91Q 200.82820312500002 14.65  196.138203125 19.34Q 191.458203125 24.02  183.638203125 24.02L 183.638203125 24.02Q 179.788203125 24.02  176.758203125 23.19L 176.758203125 23.19L 176.758203125 12.3Q 178.758203125 12.89  181.248203125 12.89L 181.248203125 12.89Q 187.788203125 12.89  189.848203125 4.3L 189.848203125 4.3L 190.768203125 0.88ZM 272.6482812500001-10.01L 272.6482812500001-10.01Q 275.38828125000003-10.01  278.55828125000005-11.38L 278.55828125000005-11.38L 278.55828125000005-1.22Q 275.38828125000003 0.98  269.03828125000007 0.98L 269.03828125000007 0.98Q 261.9582812500001 0.98  258.53828125000007-3.25Q 255.11828125000005-7.47  255.11828125000005-15.92L 255.11828125000005-15.92L 255.11828125000005-44.09L 249.84828125000007-44.09L 249.84828125000007-49.9L 256.63828125000003-54.59L 259.9582812500001-66.11L 268.25828125000004-66.11L 268.25828125000004-54.39L 278.11828125000005-54.39L 278.11828125000005-44.09L 268.25828125000004-44.09L 268.25828125000004-15.48Q 268.25828125000004-10.01  272.6482812500001-10.01ZM 328.2601562500001-54.39L 328.2601562500001 0L 315.28015625000006 0L 315.28015625000006-54.39L 328.2601562500001-54.39ZM 314.74015625000004-68.6L 314.74015625000004-68.6Q 314.74015625000004-71.83  316.62015625000004-73.71Q 318.50015625000003-75.59  321.87015625000004-75.59L 321.87015625000004-75.59Q 325.04015625000005-75.59  326.9501562500001-73.71Q 328.85015625000005-71.83  328.85015625000005-68.6L 328.85015625000005-68.6Q 328.85015625000005-65.28  326.90015625000007-63.45Q 324.94015625000003-61.62  321.87015625000004-61.62L 321.87015625000004-61.62Q 318.6401562500001-61.62  316.69015625000003-63.45Q 314.74015625000004-65.28  314.74015625000004-68.6ZM 386.36890625 0.98L 386.36890625 0.98Q 376.64890625 0.98  371.56890625-6.1Q 366.48890625-13.18  366.48890625-26.9L 366.48890625-26.9Q 366.48890625-41.26  371.29890625-48.34Q 376.10890625-55.42  386.16890625-55.42L 386.16890625-55.42Q 389.19890625-55.42  392.51890625-54.54Q 395.83890625-53.66  398.47890625-52L 398.47890625-52L 394.75890625-41.89Q 390.70890625-44.29  387.58890625-44.29L 387.58890625-44.29Q 383.43890625-44.29  381.60890625-39.97Q 379.76890625-35.64  379.76890625-27L 379.76890625-27Q 379.76890625-18.55  381.57890625-14.38Q 383.38890625-10.21  387.48890625-10.21L 387.48890625-10.21Q 392.36890625-10.21  397.68890625-13.62L 397.68890625-13.62L 397.68890625-2.2Q 392.56890625 0.98  386.36890625 0.98ZM 463.70828125000014-15.92L 463.70828125000014-15.92Q 463.70828125000014-7.96  459.0382812500001-3.49Q 454.3782812500001 0.98  445.2982812500001 0.98L 445.2982812500001 0.98Q 437.2382812500001 0.98  431.96828125000013-2.2L 431.96828125000013-2.2L 431.96828125000013-13.48Q 434.64828125000014-11.62  438.2382812500001-10.4Q 441.8282812500001-9.18  444.5682812500001-9.18L 444.5682812500001-9.18Q 447.58828125000014-9.18  449.1782812500001-10.67Q 450.7682812500001-12.16  450.7682812500001-14.6L 450.7682812500001-14.6Q 450.7682812500001-17.09  449.1082812500001-18.95Q 447.4482812500001-20.8  442.9982812500001-23.49L 442.9982812500001-23.49Q 437.0982812500001-27  434.52828125000013-30.98Q 431.96828125000013-34.96  431.96828125000013-40.38L 431.96828125000013-40.38Q 431.96828125000013-47.31  436.7282812500001-51.37Q 441.4882812500001-55.42  449.7882812500001-55.42L 449.7882812500001-55.42Q 457.0182812500001-55.42  463.40828125000013-51.61L 463.40828125000013-51.61L 459.1682812500001-42.29Q 453.9382812500001-45.12  449.9882812500001-45.12L 449.9882812500001-45.12Q 447.4982812500001-45.12  446.2482812500001-43.8Q 445.0082812500001-42.48  445.0082812500001-40.58L 445.0082812500001-40.58Q 445.0082812500001-38.38  446.5382812500001-36.67Q 448.0782812500001-34.96  452.27828125000013-32.42L 452.27828125000013-32.42Q 457.3582812500001-29.35  459.40828125000013-27.2Q 461.45828125000014-25.05  462.57828125000015-22.31Q 463.70828125000014-19.58  463.70828125000014-15.92Z" data-textpath="Analytics" data-text-anchor="middle" data-font-size="100" data-letterspacing="29" data-side="left" data-offset="0.5" data-dx="0" data-dy="0" data-xmlspace="preserve" data-href="" data-font="Open Sans Condensed" data-font-src="/Content/clientfonts/opensanscondensed-bold.woff" data-font-scale="contain" transform="translate(0,0)" data-x="0" data-y="0" fill="url('#linearGradientSkhxnvlue11')"></path>
        </g>
      </svg>
    </g>
  </g>
</svg>