<?xml version="1.0" encoding="utf-8"?>
<!-- Generator: Adobe Illustrator 25.0.0, SVG Export Plug-In . SVG Version: 6.00 Build 0)  -->
<svg version="1.1"
	 id="Layer_1" xmlns:inkscape="http://www.inkscape.org/namespaces/inkscape" xmlns:ns1="http://www.inkscape.org/namespaces/inkscape" xmlns:sketch="http://www.bohemiancoding.com/sketch/ns" xmlns:sodipodi="http://sodipodi.sourceforge.net/DTD/sodipodi-0.dtd"
	 xmlns="http://www.w3.org/2000/svg" xmlns:xlink="http://www.w3.org/1999/xlink" x="0px" y="0px" viewBox="0 0 1000 1000"
	 style="enable-background:new 0 0 1000 1000;" xml:space="preserve">
<style type="text/css">
	.st0{fill-rule:evenodd;clip-rule:evenodd;fill:url(#SVGID_1_);}
	.st1{fill-rule:evenodd;clip-rule:evenodd;fill:url(#SVGID_2_);}
	.st2{fill-rule:evenodd;clip-rule:evenodd;fill:url(#SVGID_3_);}
	.st3{fill-rule:evenodd;clip-rule:evenodd;fill:url(#SVGID_4_);}
	.st4{fill:#FFFFFF;}
</style>
<g transform="matrix(1.8319,0,0,1.8319,-105.9837,28.0469)">
	<g transform="matrix(-1.2856,0.0224,-0.0224,-1.2856,283.59,159.2043)">
		<g>
			
				<linearGradient id="SVGID_1_" gradientUnits="userSpaceOnUse" x1="376.4449" y1="-299.6205" x2="377.4449" y2="-299.6205" gradientTransform="matrix(-263.0008 -2.9887 -4.5825 171.5291 97525.1797 52470.9414)">
				<stop  offset="0" style="stop-color:#74D14C;stop-opacity:0.54"/>
				<stop  offset="1" style="stop-color:#74D14C;stop-opacity:0.54"/>
			</linearGradient>
			<path class="st0" d="M-12.4-84.2c-9.4,0-17,7.6-17,17c0,14.6-7.3,21.8-21.9,21.8c-14.6,0-21.9-7.3-21.9-21.8c0-9.4-7.6-17-17-17
				s-17,7.6-17,17c0,9.4,7.6,17,17,17c14.6,0,21.9,7.3,21.9,21.9c0,9.4,7.6,17,17,17c9.4,0,17-7.6,17-17c0-14.6,7.3-21.9,21.8-21.9
				c9.4,0,17-7.6,17-17C4.6-76.6-3-84.2-12.4-84.2z"/>
		</g>
	</g>
	<g transform="matrix(1.2858,0,0,1.2858,183.9971,60.9266)">
		<g>
			
				<linearGradient id="SVGID_2_" gradientUnits="userSpaceOnUse" x1="-292.2302" y1="382.3523" x2="-291.2302" y2="382.3523" gradientTransform="matrix(263.0417 0 0 -171.5558 76942.4609 65679.0156)">
				<stop  offset="0" style="stop-color:#61C78C;stop-opacity:0.54"/>
				<stop  offset="1" style="stop-color:#61C78C;stop-opacity:0.54"/>
			</linearGradient>
			<path class="st1" d="M168.4,47.9c-9.4,0-17,7.6-17,17c0,14.6-7.3,21.8-21.8,21.8c-14.6,0-21.9-7.3-21.9-21.8c0-9.4-7.6-17-17-17
				s-17,7.6-17,17c0,9.4,7.6,17,17,17c14.6,0,21.9,7.3,21.9,21.9c0,9.4,7.6,17,17,17c9.4,0,17-7.6,17-17c0-14.6,7.3-21.9,21.8-21.9
				c9.4,0,17-7.6,17-17C185.4,55.5,177.8,47.9,168.4,47.9z"/>
		</g>
	</g>
	<g transform="matrix(0.0449,1.285,-1.285,0.0449,218.8251,0.3381)">
		<g>
			
				<linearGradient id="SVGID_3_" gradientUnits="userSpaceOnUse" x1="419.2709" y1="334.8181" x2="420.2709" y2="334.8181" gradientTransform="matrix(9.1854 -171.449 -262.8781 -5.9907 84184.5156 73851.0078)">
				<stop  offset="0" style="stop-color:#33B5CC;stop-opacity:0.53"/>
				<stop  offset="1" style="stop-color:#33B5CC;stop-opacity:0.53"/>
			</linearGradient>
			<path class="st2" d="M114-74.8c-9.4,0-17,7.6-17,17C97-43.2,89.8-36,75.2-36c-14.6,0-21.9-7.3-21.9-21.8c0-9.4-7.6-17-17-17
				s-17,7.6-17,17c0,9.4,7.6,17,17,17c14.6,0,21.9,7.3,21.9,21.9c0,9.4,7.6,17,17,17c9.4,0,17-7.6,17-17c0-14.6,7.3-21.9,21.8-21.9
				c9.4,0,17-7.6,17-17C131-67.2,123.4-74.8,114-74.8z"/>
		</g>
	</g>
	<g transform="matrix(0,1.2858,-1.2858,0,222.5734,60.4971)">
		<g>
			
				<linearGradient id="SVGID_4_" gradientUnits="userSpaceOnUse" x1="383.9187" y1="322.9098" x2="384.9187" y2="322.9098" gradientTransform="matrix(0 -171.5558 -263.0417 0 84986.3984 65822.8125)">
				<stop  offset="0" style="stop-color:#5ACCC2;stop-opacity:0.53"/>
				<stop  offset="1" style="stop-color:#5ACCC2;stop-opacity:0.53"/>
			</linearGradient>
			<path class="st3" d="M142.3-77.1c-9.4,0-17,7.6-17,17c0,14.6-7.3,21.8-21.8,21.8c-14.6,0-21.9-7.3-21.9-21.8c0-9.4-7.6-17-17-17
				s-17,7.6-17,17c0,9.4,7.6,17,17,17c14.6,0,21.9,7.3,21.9,21.9c0,9.4,7.6,17,17,17c9.4,0,17-7.6,17-17c0-14.6,7.3-21.9,21.8-21.9
				c9.4,0,17-7.6,17-17C159.3-69.5,151.7-77.1,142.3-77.1z"/>
		</g>
	</g>
	<g transform="matrix(0.8167,0,0,0.8167,85.7038,138.1165)">
		<g transform="matrix(1,0,0,1,0,102)">
			<path class="st4" d="M115.1,133.6L115.1,133.6c0,19.7-3.7,34.8-11.1,45.4c-7.4,10.6-17.9,15.9-31.6,15.9l0,0
				c-13.8,0-24.4-5.3-31.8-15.8s-11.1-25.8-11.1-45.6l0,0c0-19.7,3.7-34.8,11.1-45.3s18-15.8,31.9-15.8l0,0
				c13.7,0,24.3,5.3,31.6,15.8C111.4,98.8,115.1,113.9,115.1,133.6z M52.2,133.6L52.2,133.6c0,13.6,1.7,23.9,5.1,31
				c3.4,7.1,8.4,10.7,15.1,10.7l0,0c13.3,0,20-13.9,20-41.7l0,0c0-27.8-6.6-41.7-19.9-41.7l0,0c-6.7,0-11.8,3.5-15.2,10.6
				C53.9,109.6,52.2,120,52.2,133.6z M155,194.9L155,194.9c-8.4,0-14.9-4.1-19.8-12.4c-4.8-8.2-7.2-19.7-7.2-34.4l0,0
				c0-14.8,2.4-26.3,7.1-34.7s11.2-12.5,19.5-12.5l0,0c4.1,0,7.7,1,10.7,3c3,2,5.8,5.5,8.4,10.3l0,0h1.3c-0.7-8.2-1-14-1-17.3l0,0
				V66.6h21.7v126.6h-16.1l-3.7-11.8h-0.7C170.5,190.4,163.8,194.9,155,194.9z M162,176.6L162,176.6c4,0,7-1.8,8.8-5.5
				c1.8-3.7,2.8-10.3,3-20l0,0v-2.8c0-10.5-0.9-17.9-2.8-22.2c-1.9-4.3-5-6.4-9.2-6.4l0,0c-4,0-6.9,2.5-8.8,7.4
				c-1.8,4.9-2.7,12.1-2.7,21.5l0,0c0,9.4,0.9,16.4,2.8,21.1C154.9,174.2,157.8,176.6,162,176.6z M231.5,194.7l-26.8-92.1h22.5
				l12.5,51.2c1.2,4.6,2.2,10.9,3,19.1l0,0h0.5c0-1.3,0.3-3.6,0.7-6.9c0.4-3.3,0.8-5.9,1.1-7.8c0.3-1.9,4-20.4,11.2-55.5l0,0h22.8
				l-26,97.2c-3.1,11.9-7.3,20.5-12.5,25.7c-5.2,5.2-12.1,7.8-20.8,7.8l0,0c-4.3,0-8.1-0.5-11.5-1.4l0,0v-18.1c2.2,0.7,4.7,1,7.5,1
				l0,0c7.3,0,12-4.8,14.3-14.3l0,0L231.5,194.7z M336.8,166.7L336.8,166.7c0,8.8-2.6,15.8-7.8,20.7c-5.2,5-12.8,7.4-22.9,7.4l0,0
				c-9,0-16.4-1.8-22.2-5.3l0,0v-18.8c3,2.1,6.5,3.8,10.5,5.1c4,1.4,7.5,2,10.6,2l0,0c3.4,0,5.9-0.8,7.7-2.5
				c1.8-1.7,2.6-3.8,2.6-6.5l0,0c0-2.8-0.9-5.2-2.8-7.3c-1.8-2.1-5.2-4.6-10.2-7.6l0,0c-6.6-3.9-11.3-8.1-14.1-12.5
				c-2.8-4.4-4.3-9.6-4.3-15.7l0,0c0-7.7,2.6-13.8,7.9-18.3c5.3-4.5,12.5-6.8,21.8-6.8l0,0c8,0,15.6,2.1,22.7,6.3l0,0l-7.1,15.5
				c-5.8-3.1-10.9-4.7-15.3-4.7l0,0c-2.8,0-4.8,0.7-6.2,2.2c-1.4,1.5-2.1,3.3-2.1,5.4l0,0c0,2.4,0.9,4.6,2.5,6.5
				c1.7,1.9,4.9,4.3,9.6,7.1l0,0c5.6,3.4,9.6,6.3,11.9,8.7c2.3,2.4,4,5.1,5.3,8.1C336.2,159.1,336.8,162.6,336.8,166.7z
				 M399.1,166.7L399.1,166.7c0,8.8-2.6,15.8-7.8,20.7c-5.2,5-12.8,7.4-22.9,7.4l0,0c-9,0-16.4-1.8-22.2-5.3l0,0v-18.8
				c3,2.1,6.5,3.8,10.5,5.1c4,1.4,7.5,2,10.5,2l0,0c3.4,0,5.9-0.8,7.7-2.5c1.8-1.7,2.6-3.8,2.6-6.5l0,0c0-2.8-0.9-5.2-2.8-7.3
				c-1.8-2.1-5.2-4.6-10.2-7.6l0,0c-6.6-3.9-11.3-8.1-14.1-12.5c-2.8-4.4-4.3-9.6-4.3-15.7l0,0c0-7.7,2.6-13.8,7.9-18.3
				c5.3-4.5,12.5-6.8,21.8-6.8l0,0c8,0,15.6,2.1,22.7,6.3l0,0l-7.1,15.5c-5.8-3.1-10.9-4.7-15.3-4.7l0,0c-2.8,0-4.8,0.7-6.2,2.2
				c-1.4,1.5-2.1,3.3-2.1,5.4l0,0c0,2.4,0.9,4.6,2.6,6.5c1.7,1.9,4.9,4.3,9.6,7.1l0,0c5.6,3.4,9.6,6.3,11.9,8.7
				c2.3,2.4,4,5.1,5.3,8.1C398.5,159.1,399.1,162.6,399.1,166.7z M446.2,194.9L446.2,194.9c-11.3,0-20.3-4-26.8-12.1
				c-6.5-8.1-9.8-19.5-9.8-34.2l0,0c0-15,3-26.7,8.9-35.1c5.9-8.4,14.2-12.6,24.7-12.6l0,0c9.9,0,17.7,3.6,23.4,10.8
				c5.7,7.2,8.6,17.3,8.6,30.2l0,0v11.6h-43.5c0.2,8.1,1.8,14.1,5,18c3.1,3.9,7.5,5.9,13,5.9l0,0c7.1,0,14.3-2.2,21.6-6.6l0,0v17.8
				C464.3,192.8,456,194.9,446.2,194.9z M443.1,117.6L443.1,117.6c-3.1,0-5.6,1.6-7.6,4.9c-2,3.3-3.2,8.4-3.5,15.3l0,0h22
				c-0.1-6.6-1.1-11.6-3-15.1C449,119.3,446.4,117.6,443.1,117.6z M507.1,194.7l-26.8-92.1h22.5l12.5,51.2c1.2,4.6,2.2,10.9,3,19.1
				l0,0h0.5c0-1.3,0.3-3.6,0.7-6.9c0.4-3.3,0.8-5.9,1-7.8c0.3-1.9,4-20.4,11.2-55.5l0,0h22.8l-26,97.2c-3.1,11.9-7.3,20.5-12.5,25.7
				c-5.2,5.2-12.1,7.8-20.8,7.8l0,0c-4.3,0-8.1-0.5-11.5-1.4l0,0v-18.1c2.2,0.7,4.7,1,7.5,1l0,0c7.3,0,12-4.8,14.3-14.3l0,0
				L507.1,194.7z"/>
		</g>
	</g>
	<g transform="matrix(0.5085,0,0,0.5085,133.2184,225.8453)">
		<g transform="matrix(1,0,0,1,0,102)">
			<path class="st4" d="M-5.5,384.2h-22.2l-6.8-30h-31l-6.8,30h-22.1l29.5-119.5h30L-5.5,384.2z M-61.2,334.5h22.5l-6.3-27.7
				c-0.4-1.7-1.2-5.9-2.6-12.6c-1.3-6.8-2.1-11.3-2.4-13.6l0,0c-0.7,4.7-1.6,9.8-2.7,15.4C-53.8,301.7-56.6,314.5-61.2,334.5
				L-61.2,334.5z M119,384.2H97.2v-54c0-6.6-0.8-11.5-2.4-14.9c-1.6-3.4-4.1-5-7.7-5l0,0c-4.7,0-8.1,2.3-10.2,6.9
				s-3.2,12.5-3.2,23.5l0,0v43.5H52v-90.6h17.2l2.6,11.6h1.4c2-4.2,4.8-7.4,8.4-9.8c3.6-2.4,7.9-3.5,12.8-3.5l0,0
				c8.2,0,14.4,2.8,18.5,8.5c4.1,5.6,6.1,13.9,6.1,24.7l0,0V384.2z M245.1,384.2h-15.9l-4.3-12.4h-0.5c-3.2,5.3-6.5,9-9.9,11
				s-7.7,3-12.9,3l0,0c-6.7,0-11.9-2.5-15.8-7.5c-3.8-5-5.7-11.9-5.7-20.8l0,0c0-9.5,2.6-16.6,7.9-21.3c5.2-4.6,13.1-7.2,23.5-7.7
				l0,0l12-0.5v-6.5c0-8.5-3.7-12.7-11-12.7l0,0c-5.4,0-11.7,2.1-18.7,6.3l0,0l-7.5-15c9-5.7,18.8-8.6,29.4-8.6l0,0
				c9.6,0,16.9,2.8,21.9,8.3c5,5.5,7.5,13.3,7.5,23.4l0,0V384.2z M210.5,368.9L210.5,368.9c4,0,7.1-1.8,9.5-5.3
				c2.4-3.6,3.5-8.3,3.5-14.2l0,0v-7.7l-6.7,0.3c-4.9,0.3-8.6,1.7-10.9,4.2c-2.3,2.5-3.5,6.3-3.5,11.4l0,0
				C202.5,365.1,205.2,368.9,210.5,368.9z M332.6,257.5v126.6H311V257.5H332.6z M416.8,385.6l-26.8-92.1h22.5l12.5,51.2
				c1.2,4.6,2.2,10.9,3,19.1l0,0h0.5c0-1.3,0.3-3.6,0.7-6.9c0.4-3.3,0.8-6,1.1-7.9c0.3-1.9,4-20.4,11.2-55.5l0,0h22.8l-26,97.2
				c-3.1,11.9-7.3,20.5-12.5,25.7c-5.2,5.2-12.1,7.8-20.8,7.8l0,0c-4.3,0-8.1-0.5-11.5-1.4l0,0v-18.1c2.2,0.7,4.7,1,7.5,1l0,0
				c7.3,0,12-4.8,14.3-14.3l0,0L416.8,385.6z M553.2,367.5L553.2,367.5c3,0,6.3-0.8,9.9-2.3l0,0v16.9c-3.5,2.4-8.8,3.7-15.9,3.7l0,0
				c-7.9,0-13.7-2.4-17.5-7c-3.8-4.7-5.7-11.7-5.7-21.1l0,0v-47h-8.8V301l11.3-7.8l5.5-19.2h13.8v19.5h16.4v17.2h-16.4v47.7
				C545.9,364.4,548.3,367.5,553.2,367.5z M645.9,293.5v90.6h-21.6v-90.6H645.9z M623.4,269.8L623.4,269.8c0-3.6,1-6.4,3.1-8.5
				c2.1-2.1,5-3.1,8.8-3.1l0,0c3.5,0,6.3,1,8.5,3.1c2.1,2.1,3.2,4.9,3.2,8.5l0,0c0,3.7-1.1,6.5-3.2,8.6c-2.2,2-5,3.1-8.4,3.1l0,0
				c-3.6,0-6.5-1-8.6-3.1C624.5,276.4,623.4,273.5,623.4,269.8z M742.8,385.8L742.8,385.8c-10.8,0-19-3.9-24.7-11.8
				s-8.5-19.4-8.5-34.7l0,0c0-16,2.7-27.9,8-35.7s13.6-11.8,24.8-11.8l0,0c3.4,0,6.9,0.5,10.6,1.5c3.7,1,7,2.4,9.9,4.2l0,0
				l-6.2,16.9c-4.5-2.7-8.5-4-12-4l0,0c-4.6,0-7.9,2.4-10,7.2c-2,4.8-3.1,12-3.1,21.6l0,0c0,9.4,1,16.4,3,21c2,4.6,5.3,6.9,9.8,6.9
				l0,0c5.4,0,11.1-1.9,17-5.7l0,0v19C755.9,384,749.6,385.8,742.8,385.8z M871.7,357.6L871.7,357.6c0,8.8-2.6,15.8-7.8,20.7
				c-5.2,5-12.8,7.4-22.9,7.4l0,0c-9,0-16.4-1.8-22.2-5.3l0,0v-18.8c3,2.1,6.5,3.8,10.5,5.1c4,1.4,7.5,2,10.5,2l0,0
				c3.4,0,5.9-0.8,7.7-2.5s2.6-3.8,2.6-6.5l0,0c0-2.8-0.9-5.2-2.8-7.2c-1.8-2.1-5.2-4.6-10.2-7.6l0,0c-6.6-3.9-11.3-8.1-14.1-12.5
				c-2.8-4.4-4.3-9.6-4.3-15.7l0,0c0-7.7,2.6-13.8,7.9-18.3c5.3-4.5,12.5-6.8,21.8-6.8l0,0c8,0,15.6,2.1,22.7,6.3l0,0l-7.1,15.5
				c-5.8-3.1-10.9-4.7-15.3-4.7l0,0c-2.8,0-4.8,0.7-6.2,2.2c-1.4,1.5-2.1,3.3-2.1,5.4l0,0c0,2.4,0.8,4.6,2.5,6.5
				c1.7,1.9,4.9,4.3,9.6,7.1l0,0c5.6,3.4,9.6,6.3,11.9,8.7c2.3,2.4,4,5.1,5.3,8.1C871,350,871.7,353.6,871.7,357.6z"/>
		</g>
	</g>
</g>
</svg>
